<svg xmlns="http://www.w3.org/2000/svg" xmlns:xlink="http://www.w3.org/1999/xlink" id="processonSvg1000" viewBox="181.0 228.0 702.0 253.0" width="702.0" height="253.0"><defs id="ProcessOnDefs1001"><marker id="ProcessOnMarker1034" markerUnits="userSpaceOnUse" orient="auto" markerWidth="16.23606797749979" markerHeight="10.550836550532098" viewBox="-1.0 -1.3763819204711736 16.23606797749979 10.550836550532098" refX="-1.0" refY="3.8990363547948754"><path id="ProcessOnPath1035" d="M12.0 3.8990363547948754L0.0 7.798072709589751V0.0Z" stroke="#323232" stroke-width="2.0" fill="#323232" transform="matrix(1.0,0.0,0.0,1.0,0.0,0.0)"/></marker><marker id="ProcessOnMarker1041" markerUnits="userSpaceOnUse" orient="auto" markerWidth="16.23606797749979" markerHeight="10.550836550532098" viewBox="-1.0 -1.3763819204711736 16.23606797749979 10.550836550532098" refX="-1.0" refY="3.8990363547948754"><path id="ProcessOnPath1042" d="M12.0 3.8990363547948754L0.0 7.798072709589751V0.0Z" stroke="#323232" stroke-width="2.0" fill="#323232" transform="matrix(1.0,0.0,0.0,1.0,0.0,0.0)"/></marker><marker id="ProcessOnMarker1048" markerUnits="userSpaceOnUse" orient="auto" markerWidth="16.23606797749979" markerHeight="10.550836550532098" viewBox="-1.0 -1.3763819204711736 16.23606797749979 10.550836550532098" refX="-1.0" refY="3.8990363547948754"><path id="ProcessOnPath1049" d="M12.0 3.8990363547948754L0.0 7.798072709589751V0.0Z" stroke="#323232" stroke-width="2.0" fill="#323232" transform="matrix(1.0,0.0,0.0,1.0,0.0,0.0)"/></marker><marker id="ProcessOnMarker1055" markerUnits="userSpaceOnUse" orient="auto" markerWidth="16.23606797749979" markerHeight="10.550836550532098" viewBox="-1.0 -1.3763819204711736 16.23606797749979 10.550836550532098" refX="-1.0" refY="3.8990363547948754"><path id="ProcessOnPath1056" d="M12.0 3.8990363547948754L0.0 7.798072709589751V0.0Z" stroke="#323232" stroke-width="2.0" fill="#323232" transform="matrix(1.0,0.0,0.0,1.0,0.0,0.0)"/></marker><marker id="ProcessOnMarker1062" markerUnits="userSpaceOnUse" orient="auto" markerWidth="16.23606797749979" markerHeight="10.550836550532098" viewBox="-1.0 -1.3763819204711736 16.23606797749979 10.550836550532098" refX="-1.0" refY="3.8990363547948754"><path id="ProcessOnPath1063" d="M12.0 3.8990363547948754L0.0 7.798072709589751V0.0Z" stroke="#323232" stroke-width="2.0" fill="#323232" transform="matrix(1.0,0.0,0.0,1.0,0.0,0.0)"/></marker></defs><g id="ProcessOnG1002"><path id="ProcessOnPath1003" d="M181.0 228.0H883.0V481.0H181.0V228.0Z" fill="none"/><g id="ProcessOnG1004"><g id="ProcessOnG1005" transform="matrix(1.0,0.0,0.0,1.0,201.0,248.0)" opacity="1.0"><path id="ProcessOnPath1006" d="M0.0 0.0L100.0 0.0L100.0 70.0L0.0 70.0Z" stroke="#323232" stroke-width="2.0" stroke-dasharray="none" opacity="1.0" fill="#ffffff"/><g id="ProcessOnG1007" transform="matrix(1.0,0.0,0.0,1.0,10.0,25.0)"><text id="ProcessOnText1008" fill="#000000" font-size="16" x="39.0" y="16.4" font-family="微软雅黑" font-weight="normal" font-style="normal" text-decoration="none" family="微软雅黑" text-anchor="middle" size="16">file</text></g></g><g id="ProcessOnG1009" transform="matrix(1.0,0.0,0.0,1.0,201.0,391.0)" opacity="1.0"><path id="ProcessOnPath1010" d="M0.0 0.0L100.0 0.0L100.0 70.0L0.0 70.0Z" stroke="#323232" stroke-width="2.0" stroke-dasharray="none" opacity="1.0" fill="#ffffff"/><g id="ProcessOnG1011" transform="matrix(1.0,0.0,0.0,1.0,10.0,15.0)"><text id="ProcessOnText1012" fill="#000000" font-size="16" x="39.0" y="16.4" font-family="微软雅黑" font-weight="normal" font-style="normal" text-decoration="none" family="微软雅黑" text-anchor="middle" size="16">processed </text><text id="ProcessOnText1013" fill="#000000" font-size="16" x="39.0" y="36.4" font-family="微软雅黑" font-weight="normal" font-style="normal" text-decoration="none" family="微软雅黑" text-anchor="middle" size="16">file</text></g></g><g id="ProcessOnG1014" transform="matrix(1.0,0.0,0.0,1.0,468.0,391.0)" opacity="1.0"><path id="ProcessOnPath1015" d="M0.0 0.0L100.0 0.0L100.0 70.0L0.0 70.0Z" stroke="#323232" stroke-width="2.0" stroke-dasharray="none" opacity="1.0" fill="#ffffff"/><g id="ProcessOnG1016" transform="matrix(1.0,0.0,0.0,1.0,10.0,15.0)"><text id="ProcessOnText1017" fill="#000000" font-size="16" x="39.0" y="16.4" font-family="微软雅黑" font-weight="normal" font-style="normal" text-decoration="none" family="微软雅黑" text-anchor="middle" size="16">processed </text><text id="ProcessOnText1018" fill="#000000" font-size="16" x="39.0" y="36.4" font-family="微软雅黑" font-weight="normal" font-style="normal" text-decoration="none" family="微软雅黑" text-anchor="middle" size="16">string</text></g></g><g id="ProcessOnG1019" transform="matrix(1.0,0.0,0.0,1.0,763.0,391.0)" opacity="1.0"><path id="ProcessOnPath1020" d="M0.0 0.0L100.0 0.0L100.0 70.0L0.0 70.0Z" stroke="#323232" stroke-width="2.0" stroke-dasharray="none" opacity="1.0" fill="#ffffff"/><g id="ProcessOnG1021" transform="matrix(1.0,0.0,0.0,1.0,10.0,15.0)"><text id="ProcessOnText1022" fill="#000000" font-size="16" x="39.0" y="16.4" font-family="微软雅黑" font-weight="normal" font-style="normal" text-decoration="none" family="微软雅黑" text-anchor="middle" size="16">processed </text><text id="ProcessOnText1023" fill="#000000" font-size="16" x="39.0" y="36.4" font-family="微软雅黑" font-weight="normal" font-style="normal" text-decoration="none" family="微软雅黑" text-anchor="middle" size="16">ast</text></g></g><g id="ProcessOnG1024" transform="matrix(1.0,0.0,0.0,1.0,468.0,248.0)" opacity="1.0"><path id="ProcessOnPath1025" d="M0.0 0.0L100.0 0.0L100.0 70.0L0.0 70.0Z" stroke="#323232" stroke-width="2.0" stroke-dasharray="none" opacity="1.0" fill="#ffffff"/><g id="ProcessOnG1026" transform="matrix(1.0,0.0,0.0,1.0,10.0,25.0)"><text id="ProcessOnText1027" fill="#000000" font-size="16" x="39.0" y="16.4" font-family="微软雅黑" font-weight="normal" font-style="normal" text-decoration="none" family="微软雅黑" text-anchor="middle" size="16">string</text></g></g><g id="ProcessOnG1028" transform="matrix(1.0,0.0,0.0,1.0,763.0,248.0)" opacity="1.0"><path id="ProcessOnPath1029" d="M0.0 0.0L100.0 0.0L100.0 70.0L0.0 70.0Z" stroke="#323232" stroke-width="2.0" stroke-dasharray="none" opacity="1.0" fill="#ffffff"/><g id="ProcessOnG1030" transform="matrix(1.0,0.0,0.0,1.0,10.0,25.0)"><text id="ProcessOnText1031" fill="#000000" font-size="16" x="39.0" y="16.4" font-family="微软雅黑" font-weight="normal" font-style="normal" text-decoration="none" family="微软雅黑" text-anchor="middle" size="16">ast</text></g></g><g id="ProcessOnG1032"><path id="ProcessOnPath1033" d="M301.0 283.0L384.5 283.0L384.5 283.0L452.7639320225002 283.0" stroke="#323232" stroke-width="2.0" stroke-dasharray="none" fill="none" marker-end="url(#ProcessOnMarker1034)"/><g id="ProcessOnG1036" transform="matrix(1.0,0.0,0.0,1.0,376.88196601125014,274.875)"><path id="ProcessOnPath1037" d="M0 0H91.0V16.25H0Z" fill="#fff" transform="matrix(1.0,0.0,0.0,1.0,-45.5,0.0)"/><text id="ProcessOnText1038" fill="#000000" font-size="13" x="0.0" y="13.325" font-family="微软雅黑" font-weight="normal" font-style="normal" text-decoration="none" family="微软雅黑" text-anchor="middle" size="13">fs.readFileSync</text></g></g><g id="ProcessOnG1039"><path id="ProcessOnPath1040" d="M568.0 283.0L665.5 283.0L665.5 283.0L747.7639320225002 283.0" stroke="#323232" stroke-width="2.0" stroke-dasharray="none" fill="none" marker-end="url(#ProcessOnMarker1041)"/><g id="ProcessOnG1043" transform="matrix(1.0,0.0,0.0,1.0,657.8819660112501,274.875)"><path id="ProcessOnPath1044" d="M0 0H49.0V16.25H0Z" fill="#fff" transform="matrix(1.0,0.0,0.0,1.0,-24.5,0.0)"/><text id="ProcessOnText1045" fill="#000000" font-size="13" x="0.0" y="13.325" font-family="微软雅黑" font-weight="normal" font-style="normal" text-decoration="none" family="微软雅黑" text-anchor="middle" size="13">babylon</text></g></g><g id="ProcessOnG1046"><path id="ProcessOnPath1047" d="M813.0 318.0L813.0 354.5L813.0 354.5L813.0 375.7639320225002" stroke="#323232" stroke-width="2.0" stroke-dasharray="none" fill="none" marker-end="url(#ProcessOnMarker1048)"/><g id="ProcessOnG1050" transform="matrix(1.0,0.0,0.0,1.0,813.0,338.75696601125014)"><path id="ProcessOnPath1051" d="M0 0H88.0V16.25H0Z" fill="#fff" transform="matrix(1.0,0.0,0.0,1.0,-44.0,0.0)"/><text id="ProcessOnText1052" fill="#000000" font-size="13" x="0.0" y="13.325" font-family="微软雅黑" font-weight="normal" font-style="normal" text-decoration="none" family="微软雅黑" text-anchor="middle" size="13">babel-traverse</text></g></g><g id="ProcessOnG1053"><path id="ProcessOnPath1054" d="M763.0 426.0L665.5 426.0L665.5 426.0L583.2360679774998 426.0" stroke="#323232" stroke-width="2.0" stroke-dasharray="none" fill="none" marker-end="url(#ProcessOnMarker1055)"/><g id="ProcessOnG1057" transform="matrix(1.0,0.0,0.0,1.0,673.1180339887499,417.875)"><path id="ProcessOnPath1058" d="M0 0H113.0V16.25H0Z" fill="#fff" transform="matrix(1.0,0.0,0.0,1.0,-56.5,0.0)"/><text id="ProcessOnText1059" fill="#000000" font-size="13" x="0.0" y="13.325" font-family="微软雅黑" font-weight="normal" font-style="normal" text-decoration="none" family="微软雅黑" text-anchor="middle" size="13">transfromFromAst</text></g></g><g id="ProcessOnG1060"><path id="ProcessOnPath1061" d="M468.0 426.0L384.5 426.0L384.5 426.0L316.2360679774998 426.0" stroke="#323232" stroke-width="2.0" stroke-dasharray="none" fill="none" marker-end="url(#ProcessOnMarker1062)"/><g id="ProcessOnG1064" transform="matrix(1.0,0.0,0.0,1.0,392.11803398874986,417.875)"><path id="ProcessOnPath1065" d="M0 0H94.0V16.25H0Z" fill="#fff" transform="matrix(1.0,0.0,0.0,1.0,-47.0,0.0)"/><text id="ProcessOnText1066" fill="#000000" font-size="13" x="0.0" y="13.325" font-family="微软雅黑" font-weight="normal" font-style="normal" text-decoration="none" family="微软雅黑" text-anchor="middle" size="13">fs.writeFileSync</text></g></g></g></g></svg>